<mxfile host="app.diagrams.net" modified="2024-03-20T02:34:55.501Z" agent="Mozilla/5.0 (Windows NT 10.0; Win64; x64) AppleWebKit/537.36 (KHTML, like Gecko) Chrome/122.0.0.0 Safari/537.36" etag="UlCgFPBbGsfWeZFFt5eI" version="24.0.1" type="google">
  <diagram name="Page-1" id="Y7xYOkAwmjUA_D_wUQq-">
    <mxGraphModel grid="0" page="0" gridSize="10" guides="1" tooltips="1" connect="1" arrows="1" fold="1" pageScale="1" pageWidth="850" pageHeight="1100" math="0" shadow="0">
      <root>
        <mxCell id="0" />
        <mxCell id="1" parent="0" />
        <mxCell id="Cb7JAFEFCnFuJz0rzOd8-42" style="edgeStyle=orthogonalEdgeStyle;rounded=0;orthogonalLoop=1;jettySize=auto;html=1;exitX=0.5;exitY=0;exitDx=0;exitDy=0;entryX=0.5;entryY=1;entryDx=0;entryDy=0;" edge="1" parent="1" source="Cb7JAFEFCnFuJz0rzOd8-1" target="Cb7JAFEFCnFuJz0rzOd8-2">
          <mxGeometry relative="1" as="geometry" />
        </mxCell>
        <mxCell id="Cb7JAFEFCnFuJz0rzOd8-1" value="&lt;font style=&quot;font-size: 30px;&quot;&gt;&lt;b&gt;IDLE&lt;/b&gt;&lt;/font&gt;" style="ellipse;whiteSpace=wrap;html=1;aspect=fixed;" vertex="1" parent="1">
          <mxGeometry x="155" y="583" width="189" height="189" as="geometry" />
        </mxCell>
        <mxCell id="Cb7JAFEFCnFuJz0rzOd8-14" style="edgeStyle=orthogonalEdgeStyle;rounded=0;orthogonalLoop=1;jettySize=auto;html=1;exitX=1;exitY=0.5;exitDx=0;exitDy=0;entryX=0;entryY=0.5;entryDx=0;entryDy=0;" edge="1" parent="1" source="Cb7JAFEFCnFuJz0rzOd8-2" target="Cb7JAFEFCnFuJz0rzOd8-13">
          <mxGeometry relative="1" as="geometry" />
        </mxCell>
        <mxCell id="Cb7JAFEFCnFuJz0rzOd8-16" style="edgeStyle=orthogonalEdgeStyle;rounded=0;orthogonalLoop=1;jettySize=auto;html=1;exitX=0;exitY=0.5;exitDx=0;exitDy=0;entryX=1;entryY=0.5;entryDx=0;entryDy=0;" edge="1" parent="1" source="Cb7JAFEFCnFuJz0rzOd8-2" target="Cb7JAFEFCnFuJz0rzOd8-12">
          <mxGeometry relative="1" as="geometry" />
        </mxCell>
        <mxCell id="Cb7JAFEFCnFuJz0rzOd8-2" value="&lt;font style=&quot;font-size: 30px;&quot;&gt;&lt;b&gt;READQ&lt;/b&gt;&lt;/font&gt;" style="ellipse;whiteSpace=wrap;html=1;aspect=fixed;" vertex="1" parent="1">
          <mxGeometry x="155" y="356" width="189" height="189" as="geometry" />
        </mxCell>
        <mxCell id="Cb7JAFEFCnFuJz0rzOd8-6" value="RST" style="text;html=1;align=center;verticalAlign=middle;whiteSpace=wrap;rounded=0;fontColor=#FF0000;" vertex="1" parent="1">
          <mxGeometry x="101" y="775" width="60" height="30" as="geometry" />
        </mxCell>
        <mxCell id="Cb7JAFEFCnFuJz0rzOd8-8" value="instr_read = 1" style="text;html=1;align=center;verticalAlign=middle;whiteSpace=wrap;rounded=0;" vertex="1" parent="1">
          <mxGeometry x="252" y="559" width="88" height="30" as="geometry" />
        </mxCell>
        <mxCell id="Cb7JAFEFCnFuJz0rzOd8-9" value="instr_queue_empty = 0" style="text;html=1;align=center;verticalAlign=middle;whiteSpace=wrap;rounded=0;fontColor=#FF0000;" vertex="1" parent="1">
          <mxGeometry x="256" y="543" width="127" height="30" as="geometry" />
        </mxCell>
        <mxCell id="Cb7JAFEFCnFuJz0rzOd8-10" value="instr_queue_empty = 1" style="text;html=1;align=center;verticalAlign=middle;whiteSpace=wrap;rounded=0;fontColor=#FF0000;" vertex="1" parent="1">
          <mxGeometry x="57" y="585" width="127" height="30" as="geometry" />
        </mxCell>
        <mxCell id="Cb7JAFEFCnFuJz0rzOd8-26" style="edgeStyle=orthogonalEdgeStyle;rounded=0;orthogonalLoop=1;jettySize=auto;html=1;exitX=1;exitY=1;exitDx=0;exitDy=0;entryX=1;entryY=0;entryDx=0;entryDy=0;" edge="1" parent="1" source="Cb7JAFEFCnFuJz0rzOd8-12" target="Cb7JAFEFCnFuJz0rzOd8-21">
          <mxGeometry relative="1" as="geometry" />
        </mxCell>
        <mxCell id="Cb7JAFEFCnFuJz0rzOd8-12" value="&lt;font style=&quot;font-size: 30px;&quot;&gt;&lt;b&gt;DIVIDE&lt;/b&gt;&lt;/font&gt;" style="ellipse;whiteSpace=wrap;html=1;aspect=fixed;" vertex="1" parent="1">
          <mxGeometry x="-201" y="356" width="189" height="189" as="geometry" />
        </mxCell>
        <mxCell id="Cb7JAFEFCnFuJz0rzOd8-46" style="edgeStyle=orthogonalEdgeStyle;rounded=0;orthogonalLoop=1;jettySize=auto;html=1;exitX=0.5;exitY=1;exitDx=0;exitDy=0;entryX=1;entryY=0.5;entryDx=0;entryDy=0;" edge="1" parent="1" source="Cb7JAFEFCnFuJz0rzOd8-13" target="Cb7JAFEFCnFuJz0rzOd8-1">
          <mxGeometry relative="1" as="geometry" />
        </mxCell>
        <mxCell id="Cb7JAFEFCnFuJz0rzOd8-13" value="&lt;font style=&quot;font-size: 30px;&quot;&gt;&lt;b&gt;PCHAR&lt;/b&gt;&lt;/font&gt;" style="ellipse;whiteSpace=wrap;html=1;aspect=fixed;" vertex="1" parent="1">
          <mxGeometry x="489" y="356" width="189" height="189" as="geometry" />
        </mxCell>
        <mxCell id="Cb7JAFEFCnFuJz0rzOd8-15" value="instr_queue_out = PCH" style="text;html=1;align=center;verticalAlign=middle;whiteSpace=wrap;rounded=0;fontColor=#FF0000;" vertex="1" parent="1">
          <mxGeometry x="348" y="426" width="130" height="30" as="geometry" />
        </mxCell>
        <mxCell id="Cb7JAFEFCnFuJz0rzOd8-17" value="instr_queue_out = PD or instr_queue_out = PDU" style="text;html=1;align=center;verticalAlign=middle;whiteSpace=wrap;rounded=0;fontColor=#FF0000;" vertex="1" parent="1">
          <mxGeometry x="7" y="419" width="133" height="30" as="geometry" />
        </mxCell>
        <mxCell id="Cb7JAFEFCnFuJz0rzOd8-19" value="fifo_char = instr_queue_out(7:0)" style="text;html=1;align=left;verticalAlign=middle;whiteSpace=wrap;rounded=0;" vertex="1" parent="1">
          <mxGeometry x="406" y="562" width="182" height="30" as="geometry" />
        </mxCell>
        <mxCell id="Cb7JAFEFCnFuJz0rzOd8-20" value="write_char = 1" style="text;html=1;align=left;verticalAlign=middle;whiteSpace=wrap;rounded=0;" vertex="1" parent="1">
          <mxGeometry x="500" y="580" width="86" height="30" as="geometry" />
        </mxCell>
        <mxCell id="Cb7JAFEFCnFuJz0rzOd8-27" style="edgeStyle=orthogonalEdgeStyle;rounded=0;orthogonalLoop=1;jettySize=auto;html=1;exitX=0;exitY=0;exitDx=0;exitDy=0;entryX=0;entryY=1;entryDx=0;entryDy=0;" edge="1" parent="1" source="Cb7JAFEFCnFuJz0rzOd8-21" target="Cb7JAFEFCnFuJz0rzOd8-12">
          <mxGeometry relative="1" as="geometry" />
        </mxCell>
        <mxCell id="Cb7JAFEFCnFuJz0rzOd8-37" style="edgeStyle=orthogonalEdgeStyle;rounded=0;orthogonalLoop=1;jettySize=auto;html=1;exitX=0.5;exitY=1;exitDx=0;exitDy=0;entryX=0.5;entryY=0;entryDx=0;entryDy=0;" edge="1" parent="1" source="Cb7JAFEFCnFuJz0rzOd8-21" target="Cb7JAFEFCnFuJz0rzOd8-36">
          <mxGeometry relative="1" as="geometry" />
        </mxCell>
        <mxCell id="Cb7JAFEFCnFuJz0rzOd8-21" value="&lt;font style=&quot;font-size: 30px;&quot;&gt;&lt;b&gt;STORE&lt;/b&gt;&lt;/font&gt;" style="ellipse;whiteSpace=wrap;html=1;aspect=fixed;" vertex="1" parent="1">
          <mxGeometry x="-201" y="583" width="189" height="189" as="geometry" />
        </mxCell>
        <mxCell id="Cb7JAFEFCnFuJz0rzOd8-28" value="numerator = instr_queue_out" style="text;html=1;align=left;verticalAlign=middle;whiteSpace=wrap;rounded=0;" vertex="1" parent="1">
          <mxGeometry x="-9.5" y="451" width="182" height="30" as="geometry" />
        </mxCell>
        <mxCell id="Cb7JAFEFCnFuJz0rzOd8-29" value="digit_in = remainder" style="text;html=1;align=left;verticalAlign=middle;whiteSpace=wrap;rounded=0;" vertex="1" parent="1">
          <mxGeometry x="-287" y="553" width="113" height="30" as="geometry" />
        </mxCell>
        <mxCell id="Cb7JAFEFCnFuJz0rzOd8-30" value="numerator = quotient" style="text;html=1;align=left;verticalAlign=middle;whiteSpace=wrap;rounded=0;" vertex="1" parent="1">
          <mxGeometry x="-292" y="539" width="118" height="30" as="geometry" />
        </mxCell>
        <mxCell id="Cb7JAFEFCnFuJz0rzOd8-31" value="digit_push = 1" style="text;html=1;align=left;verticalAlign=middle;whiteSpace=wrap;rounded=0;" vertex="1" parent="1">
          <mxGeometry x="-256" y="567" width="82" height="30" as="geometry" />
        </mxCell>
        <mxCell id="Cb7JAFEFCnFuJz0rzOd8-34" value="quotient != 0" style="text;html=1;align=center;verticalAlign=middle;whiteSpace=wrap;rounded=0;fontColor=#FF0000;" vertex="1" parent="1">
          <mxGeometry x="-277" y="524" width="130" height="30" as="geometry" />
        </mxCell>
        <mxCell id="Cb7JAFEFCnFuJz0rzOd8-35" value="(Introduced for extra slack)" style="text;html=1;align=center;verticalAlign=middle;resizable=0;points=[];autosize=1;strokeColor=none;fillColor=none;rotation=0;" vertex="1" parent="1">
          <mxGeometry x="-187" y="689" width="161" height="26" as="geometry" />
        </mxCell>
        <mxCell id="Cb7JAFEFCnFuJz0rzOd8-48" style="edgeStyle=orthogonalEdgeStyle;rounded=0;orthogonalLoop=1;jettySize=auto;html=1;exitX=1;exitY=0;exitDx=0;exitDy=0;entryX=0;entryY=0;entryDx=0;entryDy=0;" edge="1" parent="1" source="Cb7JAFEFCnFuJz0rzOd8-36" target="Cb7JAFEFCnFuJz0rzOd8-47">
          <mxGeometry relative="1" as="geometry" />
        </mxCell>
        <mxCell id="Cb7JAFEFCnFuJz0rzOd8-49" style="edgeStyle=orthogonalEdgeStyle;rounded=0;orthogonalLoop=1;jettySize=auto;html=1;exitX=1;exitY=1;exitDx=0;exitDy=0;entryX=0;entryY=1;entryDx=0;entryDy=0;" edge="1" parent="1" source="Cb7JAFEFCnFuJz0rzOd8-36" target="Cb7JAFEFCnFuJz0rzOd8-47">
          <mxGeometry relative="1" as="geometry" />
        </mxCell>
        <mxCell id="Cb7JAFEFCnFuJz0rzOd8-36" value="&lt;font style=&quot;font-size: 30px;&quot;&gt;&lt;b&gt;NEGATIVE&lt;/b&gt;&lt;/font&gt;" style="ellipse;whiteSpace=wrap;html=1;aspect=fixed;" vertex="1" parent="1">
          <mxGeometry x="-201" y="832" width="189" height="189" as="geometry" />
        </mxCell>
        <mxCell id="Cb7JAFEFCnFuJz0rzOd8-38" value="quotient = 0" style="text;html=1;align=center;verticalAlign=middle;whiteSpace=wrap;rounded=0;fontColor=#FF0000;" vertex="1" parent="1">
          <mxGeometry x="-133" y="772" width="130" height="30" as="geometry" />
        </mxCell>
        <mxCell id="Cb7JAFEFCnFuJz0rzOd8-39" value="digit_in = remainder" style="text;html=1;align=left;verticalAlign=middle;whiteSpace=wrap;rounded=0;" vertex="1" parent="1">
          <mxGeometry x="-101" y="785" width="113" height="30" as="geometry" />
        </mxCell>
        <mxCell id="Cb7JAFEFCnFuJz0rzOd8-40" value="digit_push = 1" style="text;html=1;align=left;verticalAlign=middle;whiteSpace=wrap;rounded=0;" vertex="1" parent="1">
          <mxGeometry x="-101" y="798" width="82" height="30" as="geometry" />
        </mxCell>
        <mxCell id="Cb7JAFEFCnFuJz0rzOd8-43" style="edgeStyle=orthogonalEdgeStyle;rounded=0;orthogonalLoop=1;jettySize=auto;html=1;exitX=0;exitY=1;exitDx=0;exitDy=0;entryX=0;entryY=0;entryDx=0;entryDy=0;" edge="1" parent="1" source="Cb7JAFEFCnFuJz0rzOd8-1" target="Cb7JAFEFCnFuJz0rzOd8-1">
          <mxGeometry relative="1" as="geometry">
            <Array as="points">
              <mxPoint x="73" y="744" />
              <mxPoint x="73" y="611" />
            </Array>
          </mxGeometry>
        </mxCell>
        <mxCell id="Cb7JAFEFCnFuJz0rzOd8-45" value="" style="endArrow=classic;html=1;rounded=0;entryX=0;entryY=1;entryDx=0;entryDy=0;" edge="1" parent="1" target="Cb7JAFEFCnFuJz0rzOd8-1">
          <mxGeometry width="50" height="50" relative="1" as="geometry">
            <mxPoint x="144" y="783" as="sourcePoint" />
            <mxPoint x="168" y="756" as="targetPoint" />
          </mxGeometry>
        </mxCell>
        <mxCell id="Cb7JAFEFCnFuJz0rzOd8-55" style="edgeStyle=orthogonalEdgeStyle;rounded=0;orthogonalLoop=1;jettySize=auto;html=1;exitX=0.5;exitY=0;exitDx=0;exitDy=0;entryX=0.5;entryY=1;entryDx=0;entryDy=0;" edge="1" parent="1" source="Cb7JAFEFCnFuJz0rzOd8-47" target="Cb7JAFEFCnFuJz0rzOd8-1">
          <mxGeometry relative="1" as="geometry" />
        </mxCell>
        <mxCell id="Cb7JAFEFCnFuJz0rzOd8-47" value="&lt;font style=&quot;font-size: 30px;&quot;&gt;&lt;b&gt;UNSTACK&lt;/b&gt;&lt;/font&gt;" style="ellipse;whiteSpace=wrap;html=1;aspect=fixed;" vertex="1" parent="1">
          <mxGeometry x="155" y="832" width="189" height="189" as="geometry" />
        </mxCell>
        <mxCell id="Cb7JAFEFCnFuJz0rzOd8-50" value="instr_queue_out(37:32) = PD and&lt;div&gt;instr_queue_out(31) = 1&lt;/div&gt;" style="text;html=1;align=left;verticalAlign=middle;whiteSpace=wrap;rounded=0;fontColor=#FF0000;" vertex="1" parent="1">
          <mxGeometry x="-34" y="828" width="231" height="30" as="geometry" />
        </mxCell>
        <mxCell id="Cb7JAFEFCnFuJz0rzOd8-51" value="instr_queue_out(37:32) != PD or&lt;div&gt;instr_queue_out(31) = 0&lt;/div&gt;" style="text;html=1;align=left;verticalAlign=middle;whiteSpace=wrap;rounded=0;fontColor=#FF0000;" vertex="1" parent="1">
          <mxGeometry x="-38" y="995" width="231" height="30" as="geometry" />
        </mxCell>
        <mxCell id="Cb7JAFEFCnFuJz0rzOd8-52" value="digit_in = &#39;-&#39;" style="text;html=1;align=left;verticalAlign=middle;whiteSpace=wrap;rounded=0;" vertex="1" parent="1">
          <mxGeometry x="-9.5" y="855" width="113" height="30" as="geometry" />
        </mxCell>
        <mxCell id="Cb7JAFEFCnFuJz0rzOd8-53" value="digit_push = 1" style="text;html=1;align=left;verticalAlign=middle;whiteSpace=wrap;rounded=0;" vertex="1" parent="1">
          <mxGeometry x="-9.5" y="871" width="82" height="30" as="geometry" />
        </mxCell>
        <mxCell id="Cb7JAFEFCnFuJz0rzOd8-54" value="digit_push = 0" style="text;html=1;align=left;verticalAlign=middle;whiteSpace=wrap;rounded=0;" vertex="1" parent="1">
          <mxGeometry x="-12" y="967" width="82" height="30" as="geometry" />
        </mxCell>
        <mxCell id="Cb7JAFEFCnFuJz0rzOd8-56" style="edgeStyle=orthogonalEdgeStyle;rounded=0;orthogonalLoop=1;jettySize=auto;html=1;exitX=1;exitY=1;exitDx=0;exitDy=0;entryX=1;entryY=0;entryDx=0;entryDy=0;" edge="1" parent="1" source="Cb7JAFEFCnFuJz0rzOd8-47" target="Cb7JAFEFCnFuJz0rzOd8-47">
          <mxGeometry relative="1" as="geometry">
            <Array as="points">
              <mxPoint x="422" y="993" />
              <mxPoint x="422" y="860" />
            </Array>
          </mxGeometry>
        </mxCell>
        <mxCell id="Cb7JAFEFCnFuJz0rzOd8-57" value="digit_empty = 0" style="text;html=1;align=left;verticalAlign=middle;whiteSpace=wrap;rounded=0;fontColor=#FF0000;" vertex="1" parent="1">
          <mxGeometry x="317" y="991" width="89" height="30" as="geometry" />
        </mxCell>
        <mxCell id="Cb7JAFEFCnFuJz0rzOd8-58" value="digit_empty = 1" style="text;html=1;align=left;verticalAlign=middle;whiteSpace=wrap;rounded=0;fontColor=#FF0000;" vertex="1" parent="1">
          <mxGeometry x="252" y="802" width="89" height="30" as="geometry" />
        </mxCell>
        <mxCell id="Cb7JAFEFCnFuJz0rzOd8-59" value="fifo_char = digit_top" style="text;html=1;align=left;verticalAlign=middle;whiteSpace=wrap;rounded=0;" vertex="1" parent="1">
          <mxGeometry x="427" y="885" width="114" height="30" as="geometry" />
        </mxCell>
        <mxCell id="Cb7JAFEFCnFuJz0rzOd8-60" value="write_char = 1" style="text;html=1;align=left;verticalAlign=middle;whiteSpace=wrap;rounded=0;" vertex="1" parent="1">
          <mxGeometry x="427" y="901" width="114" height="30" as="geometry" />
        </mxCell>
        <mxCell id="Cb7JAFEFCnFuJz0rzOd8-61" value="digit_pop = 1" style="text;html=1;align=left;verticalAlign=middle;whiteSpace=wrap;rounded=0;" vertex="1" parent="1">
          <mxGeometry x="427" y="918" width="114" height="30" as="geometry" />
        </mxCell>
      </root>
    </mxGraphModel>
  </diagram>
</mxfile>
